<svg width="45" height="45" viewBox="0 0 45 45" fill="none" xmlns="http://www.w3.org/2000/svg">
<g id="Icon/Solid/x">
<path id="Icon" fill-rule="evenodd" clip-rule="evenodd" d="M9.65901 9.65901C10.5377 8.78033 11.9623 8.78033 12.841 9.65901L22.5 19.318L32.159 9.65901C33.0377 8.78033 34.4623 8.78033 35.341 9.65901C36.2197 10.5377 36.2197 11.9623 35.341 12.841L25.682 22.5L35.341 32.159C36.2197 33.0377 36.2197 34.4623 35.341 35.341C34.4623 36.2197 33.0377 36.2197 32.159 35.341L22.5 25.682L12.841 35.341C11.9623 36.2197 10.5377 36.2197 9.65901 35.341C8.78033 34.4623 8.78033 33.0377 9.65901 32.159L19.318 22.5L9.65901 12.841C8.78033 11.9623 8.78033 10.5377 9.65901 9.65901Z" fill="#A4F6CC"/>
</g>
</svg>
